<svg width="60" height="60" viewBox="0 0 60 60" fill="none" xmlns="http://www.w3.org/2000/svg">
<g clip-path="url(#clip0_13_165)">
<path d="M42.5 27.5V7.5H17.5V17.5H7.5V52.5H27.5V42.5H32.5V52.5H52.5V27.5H42.5ZM17.5 47.5H12.5V42.5H17.5V47.5ZM17.5 37.5H12.5V32.5H17.5V37.5ZM17.5 27.5H12.5V22.5H17.5V27.5ZM27.5 37.5H22.5V32.5H27.5V37.5ZM27.5 27.5H22.5V22.5H27.5V27.5ZM27.5 17.5H22.5V12.5H27.5V17.5ZM37.5 37.5H32.5V32.5H37.5V37.5ZM37.5 27.5H32.5V22.5H37.5V27.5ZM37.5 17.5H32.5V12.5H37.5V17.5ZM47.5 47.5H42.5V42.5H47.5V47.5ZM47.5 37.5H42.5V32.5H47.5V37.5Z" fill="#2B2D3C"/>
</g>
<defs>
<clipPath id="clip0_13_165">
<rect width="60" height="60" fill="white"/>
</clipPath>
</defs>
</svg>
