<svg width="60" height="60" viewBox="0 0 60 60" fill="none" xmlns="http://www.w3.org/2000/svg">
<g clip-path="url(#clip0_13_162)">
<path d="M47.5 7.5H37.05C36 4.6 33.25 2.5 30 2.5C26.75 2.5 24 4.6 22.95 7.5H12.5C9.75 7.5 7.5 9.75 7.5 12.5V47.5C7.5 50.25 9.75 52.5 12.5 52.5H47.5C50.25 52.5 52.5 50.25 52.5 47.5V12.5C52.5 9.75 50.25 7.5 47.5 7.5ZM30 7.5C31.375 7.5 32.5 8.625 32.5 10C32.5 11.375 31.375 12.5 30 12.5C28.625 12.5 27.5 11.375 27.5 10C27.5 8.625 28.625 7.5 30 7.5ZM25 42.5L15 32.5L18.525 28.975L25 35.425L41.475 18.95L45 22.5L25 42.5Z" fill="#2B2D3C"/>
</g>
<defs>
<clipPath id="clip0_13_162">
<rect width="60" height="60" fill="white"/>
</clipPath>
</defs>
</svg>
