<svg width="80" height="80" viewBox="0 0 80 80" fill="none" xmlns="http://www.w3.org/2000/svg">
<g clip-path="url(#clip0_13_162)">
<path d="M63.3333 9.99992H49.4C48 6.13325 44.3333 3.33325 40 3.33325C35.6667 3.33325 32 6.13325 30.6 9.99992H16.6667C13 9.99992 10 12.9999 10 16.6666V63.3333C10 66.9999 13 69.9999 16.6667 69.9999H63.3333C67 69.9999 70 66.9999 70 63.3333V16.6666C70 12.9999 67 9.99992 63.3333 9.99992ZM40 9.99992C41.8333 9.99992 43.3333 11.4999 43.3333 13.3333C43.3333 15.1666 41.8333 16.6666 40 16.6666C38.1667 16.6666 36.6667 15.1666 36.6667 13.3333C36.6667 11.4999 38.1667 9.99992 40 9.99992ZM33.3333 56.6666L20 43.3333L24.7 38.6333L33.3333 47.2333L55.3 25.2666L60 29.9999L33.3333 56.6666Z" fill="#2B2D3C"/>
</g>
<defs>
<clipPath id="clip0_13_162">
<rect width="80" height="80" fill="white"/>
</clipPath>
</defs>
</svg>
