<svg width="80" height="80" viewBox="0 0 80 80" fill="none" xmlns="http://www.w3.org/2000/svg">
<g clip-path="url(#clip0_13_141)">
<path d="M40 42.5C45.4333 42.5 50.2333 43.8 54.1333 45.5C57.7333 47.1 60 50.7 60 54.6V60H20V54.6333C20 50.7 22.2667 47.1 25.8667 45.5333C29.7667 43.8 34.5667 42.5 40 42.5ZM13.3333 43.3333C17 43.3333 20 40.3333 20 36.6667C20 33 17 30 13.3333 30C9.66667 30 6.66667 33 6.66667 36.6667C6.66667 40.3333 9.66667 43.3333 13.3333 43.3333ZM17.1 47C15.8667 46.8 14.6333 46.6667 13.3333 46.6667C10.0333 46.6667 6.9 47.3667 4.06667 48.6C1.6 49.6667 0 52.0667 0 54.7667V60H15V54.6333C15 51.8667 15.7667 49.2667 17.1 47ZM66.6667 43.3333C70.3333 43.3333 73.3333 40.3333 73.3333 36.6667C73.3333 33 70.3333 30 66.6667 30C63 30 60 33 60 36.6667C60 40.3333 63 43.3333 66.6667 43.3333ZM80 54.7667C80 52.0667 78.4 49.6667 75.9333 48.6C73.1 47.3667 69.9667 46.6667 66.6667 46.6667C65.3667 46.6667 64.1333 46.8 62.9 47C64.2333 49.2667 65 51.8667 65 54.6333V60H80V54.7667ZM40 20C45.5333 20 50 24.4667 50 30C50 35.5333 45.5333 40 40 40C34.4667 40 30 35.5333 30 30C30 24.4667 34.4667 20 40 20Z" fill="#2B2D3C"/>
</g>
<defs>
<clipPath id="clip0_13_141">
<rect width="80" height="80" fill="white"/>
</clipPath>
</defs>
</svg>
