<svg width="80" height="80" viewBox="0 0 80 80" fill="none" xmlns="http://www.w3.org/2000/svg">
<g clip-path="url(#clip0_13_178)">
<path d="M70 16.6667C66.3 15.5 62.2334 15 58.3334 15C51.8334 15 44.8334 16.3333 40 20C35.1667 16.3333 28.1667 15 21.6667 15C15.1667 15 8.16671 16.3333 3.33337 20V68.8333C3.33337 69.6667 4.16671 70.5 5.00004 70.5C5.33337 70.5 5.50004 70.3333 5.83337 70.3333C10.3334 68.1667 16.8334 66.6667 21.6667 66.6667C28.1667 66.6667 35.1667 68 40 71.6667C44.5 68.8333 52.6667 66.6667 58.3334 66.6667C63.8334 66.6667 69.5 67.6667 74.1667 70.1667C74.5 70.3333 74.6667 70.3333 75 70.3333C75.8334 70.3333 76.6667 69.5 76.6667 68.6667V20C74.6667 18.5 72.5 17.5 70 16.6667ZM70 61.6667C66.3334 60.5 62.3334 60 58.3334 60C52.6667 60 44.5 62.1667 40 65V26.6667C44.5 23.8333 52.6667 21.6667 58.3334 21.6667C62.3334 21.6667 66.3334 22.1667 70 23.3333V61.6667Z" fill="#2B2D3C"/>
<path d="M58.3334 35C61.2667 35 64.1 35.3 66.6667 35.8667V30.8C64.0334 30.3 61.2 30 58.3334 30C52.6667 30 47.5334 30.9667 43.3334 32.7667V38.3C47.1 36.1667 52.3334 35 58.3334 35Z" fill="#2B2D3C"/>
<path d="M43.3334 41.6334V47.1667C47.1 45.0334 52.3334 43.8667 58.3334 43.8667C61.2667 43.8667 64.1 44.1667 66.6667 44.7334V39.6667C64.0334 39.1667 61.2 38.8667 58.3334 38.8667C52.6667 38.8667 47.5334 39.8667 43.3334 41.6334Z" fill="#2B2D3C"/>
<path d="M58.3334 47.7666C52.6667 47.7666 47.5334 48.7333 43.3334 50.5333V56.0666C47.1 53.9333 52.3334 52.7666 58.3334 52.7666C61.2667 52.7666 64.1 53.0666 66.6667 53.6333V48.5666C64.0334 48.0333 61.2 47.7666 58.3334 47.7666Z" fill="#2B2D3C"/>
</g>
<defs>
<clipPath id="clip0_13_178">
<rect width="80" height="80" fill="white"/>
</clipPath>
</defs>
</svg>
