<svg width="60" height="60" viewBox="0 0 60 60" fill="none" xmlns="http://www.w3.org/2000/svg">
<g clip-path="url(#clip0_13_178)">
<path d="M52.5 12.5C49.725 11.625 46.675 11.25 43.75 11.25C38.875 11.25 33.625 12.25 30 15C26.375 12.25 21.125 11.25 16.25 11.25C11.375 11.25 6.125 12.25 2.5 15V51.625C2.5 52.25 3.125 52.875 3.75 52.875C4 52.875 4.125 52.75 4.375 52.75C7.75 51.125 12.625 50 16.25 50C21.125 50 26.375 51 30 53.75C33.375 51.625 39.5 50 43.75 50C47.875 50 52.125 50.75 55.625 52.625C55.875 52.75 56 52.75 56.25 52.75C56.875 52.75 57.5 52.125 57.5 51.5V15C56 13.875 54.375 13.125 52.5 12.5ZM52.5 46.25C49.75 45.375 46.75 45 43.75 45C39.5 45 33.375 46.625 30 48.75V20C33.375 17.875 39.5 16.25 43.75 16.25C46.75 16.25 49.75 16.625 52.5 17.5V46.25Z" fill="#2B2D3C"/>
<path d="M43.75 26.25C45.95 26.25 48.075 26.475 50 26.9V23.1C48.025 22.725 45.9 22.5 43.75 22.5C39.5 22.5 35.65 23.225 32.5 24.575V28.725C35.325 27.125 39.25 26.25 43.75 26.25Z" fill="#2B2D3C"/>
<path d="M32.5 31.2249V35.3749C35.325 33.7749 39.25 32.8999 43.75 32.8999C45.95 32.8999 48.075 33.1249 50 33.5499V29.7499C48.025 29.3749 45.9 29.1499 43.75 29.1499C39.5 29.1499 35.65 29.8999 32.5 31.2249Z" fill="#2B2D3C"/>
<path d="M43.75 35.825C39.5 35.825 35.65 36.55 32.5 37.9V42.0499C35.325 40.4499 39.25 39.575 43.75 39.575C45.95 39.575 48.075 39.8 50 40.225V36.425C48.025 36.025 45.9 35.825 43.75 35.825Z" fill="#2B2D3C"/>
</g>
<defs>
<clipPath id="clip0_13_178">
<rect width="60" height="60" fill="white"/>
</clipPath>
</defs>
</svg>
