<svg width="60" height="60" viewBox="0 0 60 60" fill="none" xmlns="http://www.w3.org/2000/svg">
<g clip-path="url(#clip0_13_282)">
<path d="M38.75 27.5C40.8211 27.5 42.5 25.8211 42.5 23.75C42.5 21.6789 40.8211 20 38.75 20C36.6789 20 35 21.6789 35 23.75C35 25.8211 36.6789 27.5 38.75 27.5Z" fill="#2B2D3C"/>
<path d="M21.25 27.5C23.3211 27.5 25 25.8211 25 23.75C25 21.6789 23.3211 20 21.25 20C19.1789 20 17.5 21.6789 17.5 23.75C17.5 25.8211 19.1789 27.5 21.25 27.5Z" fill="#2B2D3C"/>
<path d="M29.975 5C16.175 5 5 16.2 5 30C5 43.8 16.175 55 29.975 55C43.8 55 55 43.8 55 30C55 16.2 43.8 5 29.975 5ZM30 50C18.95 50 10 41.05 10 30C10 18.95 18.95 10 30 10C41.05 10 50 18.95 50 30C50 41.05 41.05 50 30 50ZM17.5 35C19.45 40.85 24.3 45 30 45C35.7 45 40.55 40.85 42.5 35H17.5Z" fill="#2B2D3C"/>
</g>
<defs>
<clipPath id="clip0_13_282">
<rect width="60" height="60" fill="white"/>
</clipPath>
</defs>
</svg>
