<svg width="80" height="80" viewBox="0 0 80 80" fill="none" xmlns="http://www.w3.org/2000/svg">
<g clip-path="url(#clip0_13_282)">
<path d="M51.6666 36.6667C54.428 36.6667 56.6666 34.4282 56.6666 31.6667C56.6666 28.9053 54.428 26.6667 51.6666 26.6667C48.9052 26.6667 46.6666 28.9053 46.6666 31.6667C46.6666 34.4282 48.9052 36.6667 51.6666 36.6667Z" fill="#2B2D3C"/>
<path d="M28.3334 36.6667C31.0948 36.6667 33.3334 34.4282 33.3334 31.6667C33.3334 28.9053 31.0948 26.6667 28.3334 26.6667C25.572 26.6667 23.3334 28.9053 23.3334 31.6667C23.3334 34.4282 25.572 36.6667 28.3334 36.6667Z" fill="#2B2D3C"/>
<path d="M39.9666 6.66675C21.5666 6.66675 6.66663 21.6001 6.66663 40.0001C6.66663 58.4001 21.5666 73.3334 39.9666 73.3334C58.4 73.3334 73.3333 58.4001 73.3333 40.0001C73.3333 21.6001 58.4 6.66675 39.9666 6.66675ZM40 66.6667C25.2666 66.6667 13.3333 54.7334 13.3333 40.0001C13.3333 25.2667 25.2666 13.3334 40 13.3334C54.7333 13.3334 66.6666 25.2667 66.6666 40.0001C66.6666 54.7334 54.7333 66.6667 40 66.6667ZM23.3333 46.6667C25.9333 54.4667 32.4 60.0001 40 60.0001C47.6 60.0001 54.0666 54.4667 56.6666 46.6667H23.3333Z" fill="#2B2D3C"/>
</g>
<defs>
<clipPath id="clip0_13_282">
<rect width="80" height="80" fill="white"/>
</clipPath>
</defs>
</svg>
