<svg width="60" height="60" viewBox="0 0 60 60" fill="none" xmlns="http://www.w3.org/2000/svg">
<g clip-path="url(#clip0_13_156)">
<path d="M-3 60H3C4.65 60 6 58.65 6 57V30C6 28.35 4.65 27 3 27H-3V60ZM56.49 38.64C56.82 37.89 57 37.08 57 36.24V33C57 29.7 54.3 27 51 27H34.5L37.26 13.05C37.41 12.39 37.32 11.67 37.02 11.07C36.33 9.72 35.46 8.49 34.38 7.41L33 6L13.77 25.23C12.63 26.37 12 27.9 12 29.49V53.01C12 56.85 15.15 60 19.02 60H43.35C45.45 60 47.43 58.89 48.51 57.09L56.49 38.64Z" fill="#2B2D3C"/>
</g>
<defs>
<clipPath id="clip0_13_156">
<rect width="60" height="60" fill="white"/>
</clipPath>
</defs>
</svg>
