<svg width="80" height="80" viewBox="0 0 80 80" fill="none" xmlns="http://www.w3.org/2000/svg">
<g clip-path="url(#clip0_13_156)">
<path d="M7 70H13.6667C15.5 70 17 68.5 17 66.6667V36.6667C17 34.8333 15.5 33.3333 13.6667 33.3333H7V70ZM73.1 46.2667C73.4667 45.4333 73.6667 44.5333 73.6667 43.6V40C73.6667 36.3333 70.6667 33.3333 67 33.3333H48.6667L51.7333 17.8333C51.9 17.1 51.8 16.3 51.4667 15.6333C50.7 14.1333 49.7333 12.7667 48.5333 11.5667L47 10L25.6333 31.3667C24.3667 32.6333 23.6667 34.3333 23.6667 36.1V62.2333C23.6667 66.5 27.1667 70 31.4667 70H58.5C60.8333 70 63.0333 68.7667 64.2333 66.7667L73.1 46.2667Z" fill="#2B2D3C"/>
</g>
<defs>
<clipPath id="clip0_13_156">
<rect width="80" height="80" fill="white"/>
</clipPath>
</defs>
</svg>
