<svg width="40" height="40" viewBox="0 0 40 40" fill="none" xmlns="http://www.w3.org/2000/svg">
<path d="M20 0C9 0 0 9 0 20C0 31 9 40 20 40C31 40 40 31 40 20C40 9 31 0 20 0Z" fill="#1976D2"/>
<path d="M21.1999 29.1998C12.1999 29.1998 7.0999 23.0998 6.8999 12.7998H11.3999C11.4999 20.2998 14.8999 23.4998 17.4999 24.0998V12.7998H21.6999V19.2998C24.2999 18.9998 26.9999 16.0998 27.8999 12.7998H32.0999C31.3999 16.7998 28.3999 19.7998 26.2999 20.9998C28.3999 21.9998 31.7999 24.5998 32.9999 29.1998H28.2999C27.2999 26.0998 24.7999 23.6998 21.4999 23.2998V29.1998H21.1999Z" fill="white"/>
</svg>
