<svg width="60" height="60" viewBox="0 0 60 60" fill="none" xmlns="http://www.w3.org/2000/svg">
<g clip-path="url(#clip0_13_170)">
<path d="M12.5 27.5H2.5V55H12.5V27.5Z" fill="#2B2D3C"/>
<path d="M40 8.125C41.625 6.225 44.15 5 46.75 5C51.375 5 55 8.625 55 13.25C55 18.925 47.725 25.5 40 32.5C32.275 25.475 25 18.9 25 13.25C25 8.625 28.625 5 33.25 5C35.85 5 38.375 6.225 40 8.125Z" fill="#2B2D3C"/>
<path d="M50 42.5H32.5L27.275 40.675L28.1 38.325L32.5 40H39.55C41.175 40 42.5 38.675 42.5 37.05C42.5 35.825 41.725 34.725 40.575 34.275L22.425 27.5H17.5V50.05L35 55L55.025 47.5C55 44.75 52.775 42.5 50 42.5Z" fill="#2B2D3C"/>
</g>
<defs>
<clipPath id="clip0_13_170">
<rect width="60" height="60" fill="white"/>
</clipPath>
</defs>
</svg>
