<svg width="80" height="80" viewBox="0 0 80 80" fill="none" xmlns="http://www.w3.org/2000/svg">
<g clip-path="url(#clip0_13_170)">
<path d="M16.6667 36.6667H3.33337V73.3334H16.6667V36.6667Z" fill="#2B2D3C"/>
<path d="M53.3334 10.8334C55.5 8.30008 58.8667 6.66675 62.3334 6.66675C68.5 6.66675 73.3334 11.5001 73.3334 17.6667C73.3334 25.2334 63.6334 34.0001 53.3334 43.3334C43.0334 33.9667 33.3334 25.2001 33.3334 17.6667C33.3334 11.5001 38.1667 6.66675 44.3334 6.66675C47.8 6.66675 51.1667 8.30008 53.3334 10.8334Z" fill="#2B2D3C"/>
<path d="M66.6667 56.6667H43.3334L36.3667 54.2334L37.4667 51.1001L43.3334 53.3334H52.7334C54.9 53.3334 56.6667 51.5667 56.6667 49.4001C56.6667 47.7667 55.6334 46.3001 54.1 45.7001L29.9 36.6667H23.3334V66.7334L46.6667 73.3334L73.3667 63.3334C73.3334 59.6667 70.3667 56.6667 66.6667 56.6667Z" fill="#2B2D3C"/>
</g>
<defs>
<clipPath id="clip0_13_170">
<rect width="80" height="80" fill="white"/>
</clipPath>
</defs>
</svg>
